<?xml version="1.0" encoding="UTF-8"?>
<svg width="116px" height="60px" viewBox="0 0 116 60" version="1.1" xmlns="http://www.w3.org/2000/svg" xmlns:xlink="http://www.w3.org/1999/xlink">
    <!-- Generator: Sketch 48.2 (47327) - http://www.bohemiancoding.com/sketch -->
    <title>rethink stack</title>
    <desc>Created with Sketch.</desc>
    <defs>
        <polygon id="path-1" points="0 59.9889474 115.685789 59.9889474 115.685789 0 0 0"></polygon>
    </defs>
    <g id="homepage" stroke="none" stroke-width="1" fill="none" fill-rule="evenodd" transform="translate(-308.000000, -2849.000000)">
        <g id="Stay-Tuned" transform="translate(142.000000, 2496.000000)">
            <g id="form" transform="translate(0.000000, 124.000000)">
                <g id="I'm-excited-for" transform="translate(118.000000, 143.000000)">
                    <g id="rethink" transform="translate(0.000000, 43.000000)">
                        <g id="rethink-stack" transform="translate(48.000000, 43.000000)">
                            <path d="M16.4175263,20.3300526 L11.9675263,13.7674211 C14.2864737,13.4311053 16.0754211,11.4358421 16.0754211,9.02584211 L16.0754211,4.79531579 C16.0754211,2.15110526 13.9238421,5.26315789e-05 11.2785789,5.26315789e-05 L0.007,5.26315789e-05 L0.007,3.98847368 L11.0733158,3.98847368 C11.6233158,3.98847368 12.0864737,4.45215789 12.0864737,5.00110526 L12.0864737,8.82005263 C12.0864737,9.36952632 11.6233158,9.83321053 11.0733158,9.83321053 L0.007,9.83321053 L0.007,13.8221579 L7.18489474,13.8221579 L11.5985789,20.3300526 L16.4175263,20.3300526 Z" id="Fill-1" fill="#092864"></path>
                            <polygon id="Fill-3" fill="#092864" points="38.1069474 3.89294737 23.6074737 3.89294737 20.4285263 0.0413684211 38.1069474 0.0413684211"></polygon>
                            <mask id="mask-2" fill="white">
                                <use xlink:href="#path-1"></use>
                            </mask>
                            <g id="Clip-6"></g>
                            <polygon id="Fill-5" fill="#092864" mask="url(#mask-2)" points="23.5236842 12.1105263 38.1068421 12.1105263 38.1068421 8.25894737 23.5236842 8.25894737"></polygon>
                            <polygon id="Fill-7" fill="#092864" mask="url(#mask-2)" points="38.1069474 20.3300526 20.4285263 20.3300526 23.858 16.4784737 38.1069474 16.4784737"></polygon>
                            <polygon id="Fill-8" fill="#43DEF7" mask="url(#mask-2)" points="34.1976316 25.1318947 39.2686842 25.1318947 39.2686842 32.9734737 46.8192105 32.9734737 46.8192105 25.1318947 51.8913158 25.1318947 51.8913158 45.4187368 46.8192105 45.4187368 46.8192105 37.4182105 39.2686842 37.4182105 39.2686842 45.4187368 34.1976316 45.4187368"></polygon>
                            <polygon id="Fill-9" fill="#43DEF7" mask="url(#mask-2)" points="58.3421053 45.4189474 63.4136842 45.4189474 63.4136842 25.1321053 58.3421053 25.1321053"></polygon>
                            <polygon id="Fill-10" fill="#43DEF7" mask="url(#mask-2)" points="82.0054737 25.1318947 82.0054737 36.9508421 75.3002105 25.1318947 73.7975789 25.1318947 70.4438947 25.1318947 70.2081053 25.1318947 70.2081053 45.4187368 74.4370526 45.4187368 74.4370526 33.5997895 81.1423158 45.4187368 82.6212632 45.4187368 85.976 45.4187368 86.2354737 45.4187368 86.2354737 25.1318947"></polygon>
                            <polygon id="Fill-11" fill="#43DEF7" mask="url(#mask-2)" points="91.8132632 25.1318947 96.8848421 25.1318947 96.8848421 33.224 104.150105 25.1318947 110.874842 25.1318947 103.495368 32.8250526 111.102211 45.4187368 105.461158 45.4187368 99.9337895 36.4150526 96.8848421 39.5203158 96.8848421 45.4187368 91.8132632 45.4187368"></polygon>
                            <polyline id="Fill-12" fill="#092864" mask="url(#mask-2)" points="71.6513684 53.2702632 69.3982105 58.2807895 67.1424211 53.2713158 63.2708421 53.2723684 61.0176842 58.2828947 58.7618947 53.2734211 54.8897895 53.2744737 52.6366316 58.285 50.3808421 53.2760526 46.5092632 53.2771053 44.2555789 58.2871053 41.9997895 53.2781579 38.1282105 53.2792105 35.8745263 58.2892105 33.6187368 53.2802632 29.7471579 53.2813158 27.4945263 58.2918421 25.2382105 53.2823684 21.3661053 53.2834211 19.1129474 58.2934211 16.8571579 53.2844737 14.8518947 53.285 17.8703158 59.9892105 20.3561053 59.9881579 23.3024211 53.4365789 26.2518947 59.9865789 28.7371579 59.9860526 31.6834737 53.435 34.6324211 59.9844737 37.1182105 59.9839474 40.064 53.4328947 43.0134737 59.9823684 45.4987368 59.9818421 48.4450526 53.4302632 51.3945263 59.9802632 53.8797895 59.9797368 56.8261053 53.4286842 59.7755789 59.9781579 62.2603158 59.9776316 65.2066316 53.4265789 68.1561053 59.9760526 70.6413684 59.975 73.6487368 53.2718421"></polyline>
                            <polyline id="Fill-13" fill="#092864" mask="url(#mask-2)" points="113.686737 53.2746316 111.433579 58.2851579 109.177789 53.2756842 105.305684 53.2767368 103.052526 58.2872632 100.796737 53.2777895 96.9246316 53.2788421 94.6714737 58.2893684 92.4156842 53.2804211 88.5441053 53.2814737 86.2909474 58.2914737 84.0351579 53.2825263 80.1630526 53.2835789 77.9093684 58.2935789 75.6535789 53.2846316 73.6488421 53.2851579 76.6672632 59.9888421 79.1530526 59.9883158 82.0988421 53.4367368 85.0488421 59.9867368 87.5341053 59.9862105 90.4798947 53.4351579 93.4293684 59.9846316 95.9146316 59.9841053 98.8604211 53.4330526 101.810421 59.9825263 104.295158 59.982 107.241474 53.4304211 110.190947 59.9804211 112.676737 59.9793684 115.686211 53.272"></polyline>
                            <path d="M16.4103158,20.3300526 L11.9603158,13.7674211 C14.2787368,13.4311053 16.0682105,11.4358421 16.0682105,9.02584211 L16.0682105,4.79531579 C16.0682105,2.15110526 13.9166316,5.26315789e-05 11.2713684,5.26315789e-05 L-0.000210526316,5.26315789e-05 L-0.000210526316,3.98847368 L11.0661053,3.98847368 C11.6161053,3.98847368 12.0792632,4.45215789 12.0792632,5.00110526 L12.0792632,8.82005263 C12.0792632,9.36952632 11.6161053,9.83321053 11.0661053,9.83321053 L-0.000210526316,9.83321053 L-0.000210526316,13.8221579 L7.17715789,13.8221579 L11.5913684,20.3300526 L16.4103158,20.3300526 Z" id="Fill-14" fill="#092864" mask="url(#mask-2)"></path>
                            <polygon id="Fill-15" fill="#092864" mask="url(#mask-2)" points="38.0997895 3.89294737 23.5997895 3.89294737 20.4208421 0.0413684211 38.0997895 0.0413684211"></polygon>
                            <polygon id="Fill-16" fill="#092864" mask="url(#mask-2)" points="23.5168421 12.1105263 38.1 12.1105263 38.1 8.25894737 23.5168421 8.25894737"></polygon>
                            <polygon id="Fill-17" fill="#092864" mask="url(#mask-2)" points="38.0997895 20.3300526 20.4208421 20.3300526 23.8503158 16.4784737 38.0997895 16.4784737"></polygon>
                            <polygon id="Fill-18" fill="#43DEF7" mask="url(#mask-2)" points="14.8591053 25.1318947 18.8885789 29.4713684 18.8885789 37.1503158 18.8885789 45.4187368 18.9464737 45.4187368 18.9764737 45.4187368 23.6633158 45.4187368 23.6927895 45.4187368 23.9496316 45.4187368 23.9496316 29.4713684 30.2654211 29.4713684 30.2654211 25.1318947"></polygon>
                        </g>
                    </g>
                </g>
            </g>
        </g>
    </g>
</svg>